<svg width="1342" height="859" viewBox="0 0 1342 859" fill="none" xmlns="http://www.w3.org/2000/svg">
<path fill-rule="evenodd" clip-rule="evenodd" d="M17.6925 856.798C16.2071 855.591 13.039 851.823 12.25 846.408C11.2637 839.639 2.87849 775.691 3.36975 772.659C3.263 761.951 2.46657 725.233 2.08169 708.212C2.03785 685.782 3.8702 673.13 9.57642 650.455C10.4646 646.553 13.1629 638.065 16.8505 635.333C21.4601 631.919 37.7801 637.424 41.2264 641.866C44.6727 646.308 100.513 717.793 102.171 719.738C103.83 721.682 123.293 758.533 123.89 763.643C124.368 767.731 124.126 772.338 123.945 774.13L117.575 780.29L108.615 788.225C103.85 790.12 93.987 793.522 92.6604 791.967L81.8813 779.328L78.8752 774.2C78.8752 774.2 74.9384 775.357 72.8666 776.776C70.7949 778.195 55.8442 790.49 48.6279 796.46C48.4392 800.782 48.4194 809.926 49.8498 811.924C51.6378 814.421 50.9184 834.422 48.3287 836.196C49.3661 840.62 35.7272 850.818 28.7781 855.365L17.6925 856.798ZM44.8524 729.097L46.2788 735.179L51.6664 735.082L56.7161 730.981C54.3754 727.836 49.0981 721.568 46.7151 721.66C44.3322 721.753 44.4804 726.657 44.8524 729.097Z" fill="white"/>
<path d="M174.026 726.219L131.882 546.523C131.242 541.229 131.722 530.461 138.767 529.742L152.985 521.157C159.4 519.458 172.566 517.498 173.915 523.249L177.805 539.836L192.452 492.068C193.383 488.35 200.582 483.162 203.042 480.835C209.651 474.152 228.394 459.917 236.94 453.635C244.399 449.553 249.783 453.54 249.248 467.665L220.917 577.557L222.473 584.192L285.462 652.835C287.483 655.472 290.515 661.566 286.475 664.847C282.436 668.128 276.126 673.691 273.476 676.062C267.951 678.136 256.113 682.001 252.963 680.873C249.813 679.745 224.653 657.568 212.467 646.621C210.145 646.971 205.304 648.885 204.518 653.735L204.026 656.767L213.65 702.926C210.967 711.138 202.674 727.9 190.967 729.245C179.259 730.591 174.795 727.788 174.026 726.219Z" fill="white"/>
<path d="M295.329 648.771L248.906 450.829C255.051 441.999 271.273 424.7 287.001 426.145C298.008 436.163 321.348 456.394 331.642 465.258L317.119 403.332C322.401 395.093 335.378 379.683 345.036 383.951C354.694 388.219 355.554 391.206 354.778 392.166L402.886 597.296C399.796 600.354 392.963 605.223 390.35 600.236C387.738 595.249 335.577 546.972 309.824 523.457L335.758 634.039C330.804 640.256 319.502 652.901 313.929 653.742C308.355 654.582 299.207 650.778 295.329 648.771Z" fill="white"/>
<path fill-rule="evenodd" clip-rule="evenodd" d="M359.073 377.159L379.919 448.102L406.33 504.323L436.234 549.809L458.594 570.814L468.851 568.409L482.389 538.984L489.77 447.422L483.586 380.04L471.911 317.446L468.929 304.729C466.804 302.505 461.255 299.179 456.055 303.665C450.855 308.151 392.962 348.212 364.665 367.681L359.073 377.159ZM417.727 417.069C422.006 435.315 433.444 456.743 443.258 474.663L441.738 414.354C439.62 405.323 434.493 386.537 430.928 383.64C427.363 380.743 417.184 389.974 412.54 394.952C411.566 398.486 411.239 407.857 417.727 417.069Z" fill="white"/>
<path d="M618.731 512.842C609.666 516.912 590.48 524.134 586.251 520.459C585.091 521.664 559.932 509.91 547.497 503.882C534.412 490.812 508.989 464.264 511.973 462.631C509.666 457.922 492.533 418.191 492.895 414.606C493.184 411.738 484.345 347.391 479.889 315.575L479.186 302.324C480.454 298.332 483.875 290.024 487.418 288.726C490.962 287.429 534.336 258.084 555.58 243.574C561.554 242.562 573.602 242.498 573.998 250.338C574.493 260.138 578.588 267.345 575.146 275.735C571.703 284.126 567.121 292.783 561.372 296.465C551.064 301.216 532.209 307.971 534.465 315.025C532.342 321.356 533.462 341.51 533.022 342.196C532.67 342.746 536.527 369.957 538.499 383.494L552.811 429.137C558.331 438.148 570.412 456.508 574.577 457.865C579.784 459.56 599.629 472.406 605.818 468.038C612.008 463.669 629.338 468.355 630.037 468.774C630.736 469.193 634.521 477.639 634.029 480.671C633.538 483.703 635.279 501.377 631.99 502.732C629.358 503.816 622.054 509.923 618.731 512.842Z" fill="white"/>
<path d="M636.875 467.171L602.398 286.844C601.757 281.549 589.455 226.53 596.5 225.811L611.65 213.509L631.102 211.863C637.516 210.164 643.082 257.819 644.43 263.569L648.321 280.157L662.967 232.389C663.899 228.671 672.796 184.585 675.256 182.258C681.864 175.575 695.404 168.2 710.298 167.623C717.756 163.541 720.298 193.861 719.764 207.986L691.433 317.878L692.989 324.513L755.977 393.156C757.999 395.793 783.63 444.419 784.797 449.395C786.955 458.597 771.418 460.7 768.768 463.071C763.243 465.145 741.199 469.07 738.049 467.942C734.899 466.814 691.227 411.841 690.19 407.418C687.443 403.395 684.24 399.48 683.454 404.331L683.042 410.261L690.468 472.685C689.462 486.337 665.169 498.101 653.462 499.447C641.754 500.792 637.644 468.74 636.875 467.171Z" fill="white"/>
<path fill-rule="evenodd" clip-rule="evenodd" d="M729.109 188.878L744.155 265.847L769.587 340.965L795.789 393.736L813.799 419.26L839.967 441.124L866.422 384.753L873.508 345.759L875.891 255.952L869.317 186.911L858.472 125.29L857.769 112.038C855.644 109.814 843.359 103.401 838.16 107.887C832.96 112.373 754.082 139.856 725.785 159.325L729.109 188.878ZM788.156 243.278C792.435 261.524 813.779 322.629 823.593 340.549L828.947 224.962C826.829 215.932 820.582 176.991 817.017 174.094C813.452 171.197 785.09 182.36 780.447 187.338C779.472 190.872 781.667 234.067 788.156 243.278Z" fill="white"/>
<path d="M994.629 354.685C992.818 359.776 982.207 391.431 969.169 358.907C967.22 354.697 932.612 180.817 915.552 94.4033C908.659 85.5201 889.535 74.7222 868.179 102.597C868.056 108.226 899.262 280.415 914.88 365.806C917.692 386.34 935.365 425.982 983.562 420.279C1000.48 418.062 1029.46 408.349 1036.62 359.421C1038.12 342.737 1044.44 169.757 1001.07 59.1804C987.889 50.1387 966.38 64.2051 957.274 72.3685C975.607 160.791 1008.74 341.047 994.629 354.685Z" fill="white"/>
<path d="M1126.43 393.772L1076.61 104.461C1075.39 97.5532 1068.81 85.5267 1052.21 92.6855C1035.62 99.8444 1025.32 97.6318 1022.24 95.6306C1017.06 82.069 1008.63 54.4914 1016.38 52.674C1026.06 50.4022 1141.55 12.2341 1155.41 20.0667C1166.5 26.3328 1167.21 53.2719 1166.17 65.9582L1127.12 76.2849C1127.98 88.5255 1130.4 115.413 1133.14 125.038C1135.88 134.662 1159.87 303.098 1171.52 386.114C1164.77 394.892 1146.29 408.714 1126.43 393.772Z" fill="white"/>
<path d="M1291.64 311.278L1211.28 25.0461C1213.47 11.3109 1231.42 -10.5921 1285.7 11.6773C1291.8 64.3771 1303.22 230.786 1308.16 307.403C1306.51 311.483 1300.9 317.972 1291.64 311.278Z" fill="white"/>
<path d="M1314.95 392.726C1324.95 390.963 1343.76 380.252 1338.95 351.515C1332.93 315.594 1295.92 329.524 1295.79 328.971C1295.66 328.418 1266.24 338.818 1276.35 369.113C1284.43 393.349 1305.45 394.953 1314.95 392.726Z" fill="white"/>
<path d="M92.6604 791.967C93.987 793.522 103.85 790.12 108.615 788.225L117.575 780.29L123.945 774.13C124.126 772.338 124.368 767.731 123.89 763.643C123.293 758.533 103.83 721.682 102.171 719.738C100.513 717.793 44.6727 646.308 41.2264 641.866C37.7801 637.424 21.4601 631.919 16.8505 635.333C13.1629 638.065 10.4646 646.553 9.57642 650.455C3.8702 673.13 2.03785 685.782 2.08169 708.212C2.46657 725.233 3.263 761.951 3.36975 772.659C2.87849 775.691 11.2637 839.639 12.25 846.408C13.039 851.823 16.2071 855.591 17.6925 856.798L28.7781 855.365C35.7272 850.818 49.3661 840.62 48.3287 836.196C50.9184 834.422 51.6378 814.421 49.8498 811.924C48.4194 809.926 48.4392 800.782 48.6279 796.46C55.8442 790.49 70.7949 778.195 72.8666 776.776C74.9384 775.357 78.8752 774.2 78.8752 774.2L81.8813 779.328M92.6604 791.967C91.3337 790.411 84.9216 782.893 81.8813 779.328M92.6604 791.967L81.8813 779.328M173.915 523.249C172.566 517.498 159.4 519.458 152.985 521.157L138.767 529.742C131.722 530.461 131.242 541.229 131.882 546.523L174.026 726.219C174.795 727.788 179.259 730.591 190.967 729.245C202.674 727.9 210.967 711.138 213.65 702.926L204.026 656.767M173.915 523.249C175.263 528.999 177.07 536.703 177.805 539.836M173.915 523.249L177.805 539.836M177.805 539.836L192.452 492.068C193.383 488.35 200.582 483.162 203.042 480.835C209.651 474.152 228.394 459.917 236.94 453.635C244.399 449.553 249.783 453.54 249.248 467.665L220.917 577.557L222.473 584.192L285.462 652.835C287.483 655.472 290.515 661.566 286.475 664.847C282.436 668.128 276.126 673.691 273.476 676.062C267.951 678.136 256.113 682.001 252.963 680.873C249.813 679.745 224.653 657.568 212.467 646.621C210.145 646.971 205.304 648.885 204.518 653.735M204.518 653.735C203.732 658.586 203.863 657.778 204.026 656.767M204.518 653.735L204.026 656.767M46.2788 735.179L44.8524 729.097C44.4804 726.657 44.3322 721.753 46.7151 721.66C49.0981 721.568 54.3754 727.836 56.7161 730.981L51.6664 735.082L46.2788 735.179ZM295.329 648.771L248.906 450.829C255.051 441.999 271.273 424.7 287.001 426.145C298.008 436.163 321.348 456.394 331.642 465.258L317.119 403.332C322.401 395.093 335.378 379.683 345.036 383.951C354.694 388.219 355.554 391.206 354.778 392.166L402.886 597.296C399.796 600.354 392.963 605.223 390.35 600.236C387.738 595.249 335.577 546.972 309.824 523.457L335.758 634.039C330.804 640.256 319.502 652.901 313.929 653.742C308.355 654.582 299.207 650.778 295.329 648.771ZM359.073 377.159L379.919 448.102L406.33 504.323L436.234 549.809L458.594 570.814L468.851 568.409L482.389 538.984L489.77 447.422L483.586 380.04L471.911 317.446L468.929 304.729C466.804 302.505 461.255 299.179 456.055 303.665C450.855 308.151 392.962 348.212 364.665 367.681L359.073 377.159ZM618.731 512.842C609.666 516.912 590.48 524.134 586.251 520.459C585.091 521.664 559.932 509.91 547.497 503.882C534.412 490.812 508.989 464.264 511.973 462.631C509.666 457.922 492.533 418.191 492.895 414.606C493.184 411.738 484.345 347.391 479.889 315.575L479.186 302.324C480.454 298.332 483.875 290.024 487.418 288.726C490.962 287.429 534.336 258.084 555.58 243.574C561.554 242.562 573.602 242.498 573.998 250.338C574.493 260.138 578.588 267.345 575.146 275.735C571.703 284.126 567.121 292.783 561.372 296.465C551.064 301.216 532.209 307.971 534.465 315.025C532.342 321.356 533.462 341.51 533.022 342.196C532.67 342.746 536.527 369.957 538.499 383.494L552.811 429.137C558.331 438.148 570.412 456.508 574.577 457.865C579.784 459.56 599.629 472.406 605.818 468.038C612.008 463.669 629.338 468.355 630.037 468.774C630.736 469.193 634.521 477.639 634.029 480.671C633.538 483.703 635.279 501.377 631.99 502.732C629.358 503.816 622.054 509.923 618.731 512.842ZM443.258 474.663C433.444 456.743 422.006 435.315 417.727 417.069C411.239 407.857 411.566 398.486 412.54 394.952C417.184 389.974 427.363 380.743 430.928 383.64C434.493 386.537 439.62 405.323 441.738 414.354L443.258 474.663ZM636.875 467.171L602.398 286.844C601.757 281.549 589.455 226.53 596.5 225.811L611.65 213.509L631.102 211.863C637.516 210.164 643.082 257.819 644.43 263.569L648.321 280.157L662.967 232.389C663.899 228.671 672.796 184.585 675.256 182.258C681.864 175.575 695.404 168.2 710.298 167.623C717.756 163.541 720.298 193.861 719.764 207.986L691.433 317.878L692.989 324.513L755.977 393.156C757.999 395.793 783.63 444.419 784.797 449.395C786.955 458.597 771.418 460.7 768.768 463.071C763.243 465.145 741.199 469.07 738.049 467.942C734.899 466.814 691.227 411.841 690.19 407.418C687.443 403.395 684.24 399.48 683.454 404.331L683.042 410.261L690.468 472.685C689.462 486.337 665.169 498.101 653.462 499.447C641.754 500.792 637.644 468.74 636.875 467.171ZM729.109 188.878L744.155 265.847L769.587 340.965L795.789 393.736L813.799 419.26L839.967 441.124L866.422 384.753L873.508 345.759L875.891 255.952L869.317 186.911L858.472 125.29L857.769 112.038C855.644 109.814 843.359 103.401 838.16 107.887C832.96 112.373 754.082 139.856 725.785 159.325L729.109 188.878ZM823.593 340.549C813.779 322.629 792.435 261.524 788.156 243.278C781.667 234.067 779.472 190.872 780.447 187.338C785.09 182.36 813.452 171.197 817.017 174.094C820.582 176.991 826.829 215.932 828.947 224.962L823.593 340.549ZM994.629 354.685C992.818 359.776 982.207 391.431 969.169 358.907C967.22 354.697 932.612 180.817 915.552 94.4033C908.659 85.5201 889.535 74.7222 868.179 102.597C868.056 108.226 899.262 280.415 914.88 365.806C917.692 386.34 935.365 425.982 983.562 420.279C1000.48 418.062 1029.46 408.349 1036.62 359.421C1038.12 342.737 1044.44 169.757 1001.07 59.1804C987.889 50.1387 966.38 64.2051 957.274 72.3685C975.607 160.791 1008.74 341.047 994.629 354.685ZM1126.43 393.772L1076.61 104.461C1075.39 97.5532 1068.81 85.5267 1052.21 92.6855C1035.62 99.8444 1025.32 97.6318 1022.24 95.6306C1017.06 82.069 1008.63 54.4914 1016.38 52.674C1026.06 50.4022 1141.55 12.2341 1155.41 20.0667C1166.5 26.3328 1167.21 53.2719 1166.17 65.9582L1127.12 76.2849C1127.98 88.5255 1130.4 115.413 1133.14 125.038C1135.88 134.662 1159.87 303.098 1171.52 386.114C1164.77 394.892 1146.29 408.714 1126.43 393.772ZM1291.64 311.278L1211.28 25.0461C1213.47 11.3109 1231.42 -10.5921 1285.7 11.6773C1291.8 64.3771 1303.22 230.786 1308.16 307.403C1306.51 311.483 1300.9 317.972 1291.64 311.278ZM1314.95 392.726C1324.95 390.963 1343.76 380.252 1338.95 351.515C1332.93 315.594 1295.92 329.524 1295.79 328.971C1295.66 328.418 1266.24 338.818 1276.35 369.113C1284.43 393.349 1305.45 394.953 1314.95 392.726Z" stroke="black" stroke-width="4"/>
</svg>
